<?xml version="1.0" standalone="no"?><!DOCTYPE svg PUBLIC "-//W3C//DTD SVG 1.1//EN" "http://www.w3.org/Graphics/SVG/1.1/DTD/svg11.dtd"><svg class="icon" width="200px" height="200.00px" viewBox="0 0 1024 1024" version="1.1" xmlns="http://www.w3.org/2000/svg"><path fill="#333333" d="M760.32 625.066667a21.333333 21.333333 0 0 0-30.293333 0L682.666667 670.293333l-42.666667-45.226666a21.333333 21.333333 0 0 0-30.293333 30.293333l45.226666 45.226667-45.226666 45.226666a21.333333 21.333333 0 1 0 30.293333 30.293334l42.666667-45.653334 45.226666 45.226667a21.333333 21.333333 0 0 0 30.293334-30.293333l-45.226667-45.226667 45.226667-45.226667a21.333333 21.333333 0 0 0 2.133333-29.866666zM525.226667 198.826667A289.28 289.28 0 0 0 309.76 682.666667l-88.746667 87.893333a21.333333 21.333333 0 1 0 30.293334 30.293333L341.333333 711.68a288.426667 288.426667 0 0 0 185.173334 66.986667 21.333333 21.333333 0 0 0 0-42.666667 247.466667 247.466667 0 1 1 247.04-247.04 250.88 250.88 0 0 1-7.253334 58.88 21.333333 21.333333 0 0 0 42.666667 10.24 290.133333 290.133333 0 0 0-281.6-359.253333zM664.746667 433.92a21.333333 21.333333 0 0 0 39.68-15.786667A193.28 193.28 0 0 0 597.333333 309.333333a21.333333 21.333333 0 0 0-15.786666 39.68 150.613333 150.613333 0 0 1 83.2 84.906667z" /></svg>