<svg width="460" height="46.47" style="width:7.5em;height:1em;" viewBox="0 0 460 46.47"
  xmlns="http://www.w3.org/2000/svg" version="1.1">
  <g>
    <path id="path493090" d="m 252.989,0 h 6.48 v -38.88 h -6.48 z m -17.64,-51.12 v 5.76 h 41.76 v -5.76 z"
      transform="scale(0.9090909090909091) translate(-235.349 51.12)">
    </path>
    <path id="path493092"
      d="m 290.88125,-45.36 h 27.576 v -5.76 h -34.056 v 15.84 h 6.48 z m -6.48,39.6 V 0 h 34.704 v -5.76 z m 6.48,-17.64 h 23.976 v -5.4 h -30.456 v 16.56 h 6.48 z"
      transform="translate(40 0) scale(0.9090909090909091) translate(-284.40125 51.12)">
    </path>
    <path id="path493094"
      d="m 351.827,-44.136 -2.808,7.632 6.48,16.488 h -12.816 l -1.944,5.04 h 16.2 L 362.987,0 h 6.912 z m -2.808,-6.984 h -5.472 L 322.595,0 h 6.624 l 17.064,-43.632 z"
      transform="translate(73.59 0) scale(0.9090909090909091) translate(-322.595 51.12)">
    </path>
    <path id="path493096"
      d="M 376.79187,-51.12 V 0 h 6.48001 v -39.528 l 11.44799,20.448 3.45601,-5.904 -14.54401,-26.136 z m 43.92001,0 -18.57601,33.192 -3.384,5.904 1.584,2.808 h 3.67201 l 16.99199,-30.312 V 0 h 6.48 v -51.12 z"
      transform="translate(119.11 0)  scale(0.9090909090909091) translate(-376.79187 51.12)">
    </path>
    <path id="path493098"
      d="m 475.29125,-40.68 c -0.792,-1.944 -1.872,-3.672 -3.24,-5.256 -1.368,-1.584 -3.024,-2.808 -4.896,-3.744 -1.872,-0.936 -3.96,-1.44 -6.192,-1.44 h -21.312 v 20.448 h 6.48 V -45.36 h 14.472 c 1.224,0 2.376,0.288 3.528,0.792 1.08,0.576 2.088,1.296 2.952,2.232 0.864,1.008 1.512,2.088 2.016,3.384 0.504,1.296 0.792,2.736 0.792,4.176 0,1.44 -0.216,2.808 -0.648,4.104 -0.504,1.368 -1.08,2.448 -1.8,3.456 -0.792,1.008 -1.728,1.728 -2.808,2.304 -1.08,0.576 -2.304,0.792 -3.6,0.792 h -21.384 V 0 h 6.48 v -18.36 h 15.264 c 2.232,0 4.248,-0.432 6.12,-1.368 1.872,-0.864 3.456,-2.088 4.752,-3.672 1.296,-1.512 2.304,-3.24 3.096,-5.256 0.72,-1.944 1.08,-3.96 1.08,-6.12 0,-2.016 -0.432,-3.96 -1.152,-5.904 z"
      transform="translate(168.06 0) scale(0.9090909090909091) translate(-439.65125 51.12)">
    </path>
    <path id="path493100"
      d="m 511.15062,-19.584 c 1.58401,-0.36 3.096,-1.08 4.39201,-2.088 1.29599,-0.936 2.448,-2.088 3.384,-3.456 0.93599,-1.296 1.65599,-2.808 2.16,-4.464 0.504,-1.656 0.792,-3.384 0.792,-5.184 0,-2.016 -0.432,-3.96 -1.152,-5.904 -0.79201,-1.944 -1.872,-3.672 -3.24001,-5.256 -1.368,-1.584 -3.024,-2.808 -4.89599,-3.744 -1.87201,-0.936 -3.96001,-1.44 -6.19201,-1.44 h -21.888 V 0 h 6.48001 v -18.36 h 6.47999 l -3.59999,-5.76 h -2.88 v -21.24 h 15.048 c 1.224,0 2.37599,0.288 3.52799,0.864 1.152,0.576 2.088,1.296 2.95201,2.304 0.86399,1.008 1.51199,2.088 2.01599,3.384 0.50401,1.296 0.79201,2.664 0.79201,4.032 0,1.44 -0.216,2.736 -0.64801,4.032 -0.504,1.368 -1.08,2.448 -1.79999,3.456 -0.792,1.008 -1.72801,1.8 -2.80801,2.304 -1.07999,0.576 -2.304,0.864 -3.6,0.864 h -5.688 l 3.74401,5.76 L 516.19062,0 h 7.344 z"
      transform="translate(203.2 0) scale(0.9090909090909091) translate(-484.51062 51.12)">
    </path>
    <path id="path493102"
      d="m 569.84862,-22.752 c -0.216,1.512 -0.504,3.024 -1.00799,4.464 -0.792,2.448 -1.94401,4.608 -3.456,6.48 -1.51201,1.872 -3.384,3.456 -5.472,4.608 -2.23201,1.152 -4.68001,1.728 -7.34401,1.728 -2.664,0 -5.03999,-0.504 -7.2,-1.656 -2.16,-1.08 -4.03199,-2.592 -5.544,-4.464 -1.58399,-1.872 -2.736,-3.96 -3.6,-6.408 -0.50399,-1.512 -0.86399,-3.096 -1.07999,-4.752 h -6.55201 c 0.216,2.304 0.72001,4.608 1.584,6.768 1.08,3.168 2.73601,5.904 4.89601,8.352 2.08799,2.448 4.60799,4.392 7.55999,5.832 2.952,1.44 6.264,2.16 9.864,2.16 3.456,0 6.62401,-0.648 9.57601,-2.088 2.952,-1.44 5.47199,-3.312 7.63199,-5.688 2.16001,-2.376 3.816,-5.112 5.04001,-8.28 0.86399,-2.232 1.43999,-4.608 1.72799,-7.056 z m -33.624,-10.152 c 0.792,-2.376 1.94401,-4.464 3.456,-6.408 1.51201,-1.872 3.384,-3.384 5.54401,-4.536 2.16,-1.152 4.60799,-1.728 7.34399,-1.728 2.52,0 4.896,0.576 7.05601,1.656 2.15999,1.152 3.95999,2.592 5.544,4.464 1.58399,1.872 2.73599,3.96 3.6,6.408 0.43199,1.296 0.79199,2.664 1.00799,3.96 h 6.552 c -0.288,-1.944 -0.792,-3.96 -1.43999,-5.832 -1.15201,-3.096 -2.808,-5.832 -4.89601,-8.352 -2.16,-2.448 -4.67999,-4.392 -7.55999,-5.904 -2.952,-1.512 -6.264,-2.304 -9.79201,-2.304 -3.528,0 -6.696,0.72 -9.648,2.16 -2.952,1.44 -5.472,3.312 -7.63199,5.688 -2.16001,2.448 -3.88801,5.184 -5.11201,8.28 -0.79199,2.088 -1.368,4.176 -1.584,6.264 h 6.55201 c 0.216,-1.224 0.576,-2.52 1.00799,-3.816 z"
      transform="translate(239 0) scale(0.9090909090909091) translate(-528.59262 51.48)">
    </path>
    <path id="path493104"
      d="m 599.588,-7.056 c -2.232,-1.008 -4.104,-2.448 -5.616,-4.32 -1.584,-1.872 -2.88,-3.96 -3.744,-6.408 -0.936,-2.448 -1.368,-4.968 -1.368,-7.776 0,-2.52 0.36,-5.04 1.224,-7.488 0.792,-2.448 1.944,-4.536 3.456,-6.408 1.44,-1.872 3.24,-3.312 5.4,-4.464 2.088,-1.152 4.392,-1.728 7.056,-1.728 3.168,0 5.976,0.72 8.568,2.16 2.52,1.44 4.536,3.672 6.12,6.624 l 4.968,-3.456 c -1.728,-3.24 -4.176,-5.976 -7.344,-8.064 -3.168,-2.016 -7.272,-3.096 -12.168,-3.096 -3.456,0 -6.624,0.72 -9.504,2.088 -2.952,1.44 -5.472,3.312 -7.56,5.688 -2.16,2.376 -3.816,5.112 -4.968,8.208 -1.224,3.096 -1.8,6.336 -1.8,9.792 0,3.384 0.576,6.552 1.8,9.648 1.224,3.168 2.88,5.904 5.04,8.352 2.088,2.448 4.536,4.392 7.488,5.832 2.88,1.512 6.048,2.232 9.504,2.232 3.6,0 6.912,-0.864 10.008,-2.736 v -6.048 c -3.024,2.016 -6.192,2.952 -9.504,2.952 -2.592,0 -4.896,-0.504 -7.056,-1.584 z m 11.088,-18.432 v 4.896 h 11.016 V 0 h 5.472 v -25.488 z"
      transform="translate(285 0) scale(0.9090909090909091) translate(-582.308 51.48)">
    </path>
    <path id="path493106"
      d="m 663.72875,-19.584 c 1.584,-0.36 3.096,-1.08 4.392,-2.088 1.296,-0.936 2.448,-2.088 3.384,-3.456 0.936,-1.296 1.656,-2.808 2.16,-4.464 0.504,-1.656 0.792,-3.384 0.792,-5.184 0,-2.016 -0.432,-3.96 -1.152,-5.904 -0.792,-1.944 -1.872,-3.672 -3.24,-5.256 -1.368,-1.584 -3.024,-2.808 -4.896,-3.744 -1.872,-0.936 -3.96,-1.44 -6.192,-1.44 h -21.888 V 0 h 6.48 v -18.36 h 6.48 l -3.6,-5.76 h -2.88 v -21.24 h 15.048 c 1.224,0 2.376,0.288 3.528,0.864 1.152,0.576 2.088,1.296 2.952,2.304 0.864,1.008 1.512,2.088 2.016,3.384 0.504,1.296 0.792,2.664 0.792,4.032 0,1.44 -0.216,2.736 -0.648,4.032 -0.504,1.368 -1.08,2.448 -1.8,3.456 -0.792,1.008 -1.728,1.8 -2.808,2.304 -1.08,0.576 -2.304,0.864 -3.6,0.864 h -5.688 l 3.744,5.76 11.664,18.36 h 7.344 z"
      transform="translate(328 0) scale(0.9090909090909091) translate(-637.08875 51.12)">
    </path>
    <path id="path493108"
      d="m 708.17075,-44.136 -2.808,7.632 6.48,16.488 h -12.816 l -1.944,5.04 h 16.2 L 719.33075,0 h 6.912 z m -2.808,-6.984 h -5.472 L 678.93875,0 h 6.624 l 17.064,-43.632 z"
      transform="translate(367 0) scale(0.9090909090909091) translate(-678.93875 51.12)">
    </path>
    <path id="path493110"
      d="M 733.13562,-51.12 V 0 h 6.48001 v -39.528 l 11.44799,20.448 3.45601,-5.904 -14.544,-26.136 z m 43.92,0 -18.576,33.192 -3.38399,5.904 1.58399,2.808 h 3.67201 l 16.99199,-30.312 V 0 h 6.48 v -51.12 z"
      transform="translate(413 0) scale(0.9090909090909091) translate(-733.13562 51.12)">
    </path>
  </g>
</svg>
