<svg width="43" height="39" viewBox="0 0 43 39" fill="none" xmlns="http://www.w3.org/2000/svg">
  <path fill-rule="evenodd" clip-rule="evenodd"
    d="M36.5625 13.1625C33.15 12.9188 30.0012 12.6782 24.3004 12.5625C18.5996 12.4467 5.47047 12.6782 0.978926 14.0669L0 2.89926C0 1.26792 10.9054 0 24.4289 0C28.2947 0 33.8253 0.198182 37.05 0.4875C36.7045 6.79462 37.0291 7.16938 36.5625 13.1625Z"
    fill="url(#paint0_linear)" />
  <circle cx="36.5625" cy="6.82505" r="6.3375" fill="#1B9AEE" />
  <path fill-rule="evenodd" clip-rule="evenodd"
    d="M25.8375 6.14241V38.9999L15.6 37.0499V16.0874C15.6 16.0874 11.7802 15.9263 6.04631 15.2241C0.3124 14.5219 0 13.1989 0 13.1989L0 2.89917C0 2.89917 0.74859 4.57721 10.0772 5.3873C19.4058 6.19739 25.8375 6.14241 25.8375 6.14241Z"
    fill="#1B9AEE" />
  <defs>
    <linearGradient id="paint0_linear" x1="0" y1="15.1932" x2="42.9831" y2="15.1932" gradientUnits="userSpaceOnUse">
      <stop stop-color="#1B9AEE" stop-opacity="0.266287" />
      <stop offset="1" stop-color="#1B9AEE" stop-opacity="0.01" />
    </linearGradient>
  </defs>
</svg>
