<?xml version="1.0" standalone="no"?><!DOCTYPE svg PUBLIC "-//W3C//DTD SVG 1.1//EN" "http://www.w3.org/Graphics/SVG/1.1/DTD/svg11.dtd"><svg class="icon" width="200px" height="200.00px" viewBox="0 0 1024 1024" version="1.1" xmlns="http://www.w3.org/2000/svg"><path fill="#333333" d="M504.832 164.352c-108.544 0-196.096 88.064-196.096 196.096 0 108.544 88.064 196.096 196.096 196.096 108.544 0 196.096-88.064 196.096-196.096 0-108.032-88.064-196.096-196.096-196.096z m0 341.504c-79.872 0-144.896-65.024-144.896-144.896 0-79.872 65.024-144.896 144.896-144.896 79.872 0 144.896 65.024 144.896 144.896 0 79.872-65.024 144.896-144.896 144.896z"  /><path fill="#333333" d="M521.728 505.856c-173.568 0-296.96 86.016-309.76 238.08-4.096 49.664 32.768 93.696 82.944 97.792 2.56 0 5.12 0.512 7.68 0.512H737.28c51.712 0 94.208-41.984 93.696-94.208 0-3.072 0-6.144-0.512-9.216-14.848-150.016-136.704-232.96-308.736-232.96z m258.56 242.176c0 23.552-18.944 42.496-42.496 43.008H302.08c-22.016 0-39.424-17.92-39.424-39.424v-3.072c10.24-122.368 109.568-191.488 259.072-191.488 147.968 0 246.272 67.072 258.56 187.392v3.584z"  /><path fill="#333333" d="M754.688 541.696c99.84-27.648 158.72-131.072 131.072-230.912-14.336-52.224-50.176-95.232-98.816-118.784-14.336-6.656-31.232-1.024-37.888 13.312-6.656 14.336-1.024 31.232 13.312 37.888 65.024 31.744 92.16 110.08 60.416 175.104-16.384 33.792-46.592 58.88-82.944 69.12-15.36 4.096-24.064 19.968-19.968 34.816 4.096 14.336 19.968 23.552 34.816 19.456z"  /><path fill="#333333" d="M1013.248 726.016c0-3.072 0-6.656-0.512-9.728-13.824-137.216-117.76-219.136-269.312-230.912-15.872-1.024-29.184 10.24-30.72 26.112-1.024 15.872 10.24 29.184 26.112 30.72 125.952 9.728 206.336 72.704 217.088 179.712v4.096c0 15.872 12.8 28.672 28.672 28.672 15.872 0 28.672-12.8 28.672-28.672z"  /><path fill="#333333" d="M266.24 541.696c15.36 4.096 30.72-4.608 34.816-19.968 4.096-15.36-4.608-30.72-19.968-34.816-36.352-10.24-66.56-35.328-82.944-69.12-31.744-65.024-4.608-143.36 60.416-175.104 14.336-6.656 19.968-24.064 13.312-37.888-6.656-14.336-24.064-19.968-37.888-13.312-48.128 23.552-84.48 67.072-98.816 118.784-27.648 100.352 31.232 203.776 131.072 231.424z"  /><path fill="#333333" d="M8.192 726.016c0 15.872 12.8 28.672 28.672 28.672s28.672-12.8 28.672-28.672v-4.096c10.752-107.008 91.136-169.984 217.088-179.712 15.872-1.024 27.136-14.848 26.112-30.72-1.024-15.872-14.848-27.136-30.72-26.112-151.552 11.776-255.488 93.696-269.312 230.912-0.512 3.584-0.512 6.656-0.512 9.728z"  /></svg>