<?xml version="1.0" standalone="no"?><!DOCTYPE svg PUBLIC "-//W3C//DTD SVG 1.1//EN" "http://www.w3.org/Graphics/SVG/1.1/DTD/svg11.dtd"><svg class="icon" width="200px" height="200.00px" viewBox="0 0 1024 1024" version="1.1" xmlns="http://www.w3.org/2000/svg"><path fill="#333333" d="M828.3 818.2c-8-66.8-31.8-129.9-68.7-182.4-31.8-45.2-72.1-81-117.7-104.6 27.5-20.6 49.7-47.2 64.9-78 19.6-39.6 26.4-84.2 19.7-128.8-6.5-43.2-26-83.2-56.4-115.7-30.6-32.7-69.2-54.7-111.9-63.6-15.7-3.3-31.5-4.9-47-4.9-58.2 0-112.9 22.7-154 63.8s-63.8 95.8-63.8 154c0 38.3 10.2 76 29.5 108.9 14.7 25 34.3 46.9 57.6 64.4-45.6 23.7-86 59.5-117.7 104.7-36.9 52.5-60.7 115.5-68.7 182.4-2 16.3 3.2 32.8 14.2 45.1 11.1 12.5 26.9 19.7 43.5 19.7h518.8c16.6 0 32.5-7.2 43.5-19.7 10.9-12.6 16.1-29.1 14.2-45.3zM429.2 586.4c20.1-8.5 33.6-27.3 35.2-49.2 1.5-21.8-9.2-42.4-28.1-53.7-45.2-27-72.2-74-72.2-125.6 0-81.1 65.9-147 147-147 10.6 0 21.5 1.1 32.5 3.4 57.6 12 103.9 61.6 112.8 120.6 9 60.3-18 117.3-70.4 148.7-18.8 11.2-29.5 31.7-28.1 53.7 1.6 21.9 15 40.7 35.2 49.2 84.6 35.7 146 121.6 162.5 225.6H266.4C283.3 708 344.8 622 429.2 586.4z" /></svg>