<?xml version="1.0" standalone="no"?><!DOCTYPE svg PUBLIC "-//W3C//DTD SVG 1.1//EN" "http://www.w3.org/Graphics/SVG/1.1/DTD/svg11.dtd"><svg class="icon" width="200px" height="200.00px" viewBox="0 0 1024 1024" version="1.1" xmlns="http://www.w3.org/2000/svg"><path fill="#333333" d="M597.333333 608.085333v89.173334A256 256 0 0 0 256 938.666667l-85.333333-0.042667a341.333333 341.333333 0 0 1 426.666666-330.581333v0.042666zM512 554.666667c-141.44 0-256-114.56-256-256S370.56 42.666667 512 42.666667s256 114.56 256 256-114.56 256-256 256z m0-85.333334c94.293333 0 170.666667-76.373333 170.666667-170.666666s-76.373333-170.666667-170.666667-170.666667-170.666667 76.373333-170.666667 170.666667 76.373333 170.666667 170.666667 170.666666z m256 256v-128h85.333333v128h128v85.333334h-128v128h-85.333333v-128h-128v-85.333334h128z" /></svg>